<svg xmlns="http://www.w3.org/2000/svg" width="505" height="306" viewBox="0 0 505 306">
  <g fill="none" fill-rule="evenodd" transform="translate(0 1)">
    <path fill="#FFF" stroke="#E0E0E0" d="M500.9 38.42c-.13 0-.25.02-.35.06-.2.08-.4.12-.58.12-.92 0-1.17-1.18-1.4-2.32-.18-.8-.34-1.54-.73-1.9l-.07-.03c-4-.47-4.77-4.38-5.58-8.52-.6-2.88-1.2-5.86-3-7.64-1.2-1.2-2.2-1.7-3.2-1.7-1.1 0-2.2.6-3.6 1.5-1 .6-1.6 1-2 1-.4 0-.5-.3-.7-.7-.3-.6-.6-1.3-2.1-1.2-3.2.3-4.2 10.9-4.2 13.2 0 5-.9 9.6-3.2 15-.9-.2-2.4.8-3.3 1.7-.4.3-.7.8-.7 1.2.1 2.4-3.5 3-5.9 3.4-.7.1-1.2.2-1.6.3-1.7.4-3.8.7-6 1.1-6.1 1-12.9 2.2-16.5 5.6-4.3 4-8.6 10.9-10.3 16.6-.6 2.1-4.9 2.8-9.3 3.6-4.3.7-8.8 1.5-10.7 3.5-.1.1-.1.1 0 .2 1 1.4 3.7 6.1 2.4 7.2-2.4 1.9-5.1 3.8-8 5.7-2.1 1.3-4.2 2.3-6.3 3.3-3 1.4-6 2.9-8.88 5.2-.3.3-.7.6-1 .9-1.4 1.3-3.05 2.8-4.9 2.8-.6 0-1.14-.2-1.7-.5-2-1.07-4.18-2.6-3-5.4.5-1.18 1.4-2 2.2-2.78 1.4-1.3 2.73-2.5 2.24-5.2-.54-2.94-1.4-5.73-2.3-8.7l-.34-1.2c-.5-1.54-1.4-3.6-3.4-3.6-.5 0-1.13.2-1.8.5-.8.4-1.4 1.5-2 2.6-.7 1.3-1.47 2.64-2.6 2.64h-.2c-.7-.1-1.13-.3-1.3-.7-.54-1.2 1.27-3.8 2.6-5.7.7-1.03 1.3-1.9 1.4-2.34.5-2-.2-7.13-1.9-10-.6-1.1-1.4-1.8-2.2-2-1.9-.5-3.7-1.13-5.5-1.8-.7-.3-1.5-.6-2.23-.85l-.64-.26c-.65-.3-1.3-.56-1.95-.56-.7 0-1.2.3-1.7.9-1.1 1.5-.9 2-.6 2.5.17.32.3.7.1 1.52-2.3.8-2.24 2-2.14 3.63l.08 1.06c0 .6-.1.7-.13.8-.34 0-1.3-1.9-1.45-2.36v-.06h-.1s-.1 0-.1.05c-1.4.8-4.9 4.8-5 6.52-.1.6 0 1.2 0 1.74 0 .7.1 1.5 0 2.22-.4 1.13-.8 2.3-1.2 3.4v.1c.3 1.2.4 2.4.3 3.62-.9 1.6.4 4.6 1.64 7.5.9 2.1 1.8 4.04 1.8 5.4 0 4.6-2.54 11.6-7.3 12.7l-.5.02c-2.9 0-5.26-6-5.3-8.3 0-1.8-.4-3.5-.75-5.1-.4-1.7-.77-3.3-.8-4.9 0-1.1.3-2.2.6-3.2.4-1.5.8-3.1.35-4.7-.3-1 .1-1.7.6-2.4.2-.3.46-.7.6-1.1.4-.9.38-1.9.36-2.8-.06-1.1-.1-2.2.43-3.3.3-.6.3-1.2 0-1.7s-.8-.8-1.4-.8c-.6 0-1.2.3-1.58.9-.3.35-.5.65-.6.9-.6.8-.9 1.3-2 1.78 1-2.2 2.05-4.3 3.17-6.5.6-1.14 1.2-2.33 1.8-3.55 1.2-2.5 3-5.2 4.4-5.2.2 0 .4 0 .5.1.03.1.1.45.1.7.1.6.1 1.4.4 1.7 0 .05.1.07.1.06.03 0 .1-.03.1-.1.7-2.8 2.7-3.5 4.8-4.12.8-.24 1.63-.5 2.4-.9.53-.3.84-.6 1.1-.9.44-.4.8-.75 1.7-.7.9.07 1.74.55 2.6 1 .8.5 1.62 1 2.5 1h.1c.1 0 .1-.05.13-.1.53-1.43 1.5-1.63 2.3-1.63.43 0 .9.07 1.3.1.43.1.9.1 1.3.1.65 0 1.5-.1 2-1.1 0 0 0-.1-.05-.1-1.2-.9-1.8-1.9-2.35-2.7-.9-1.2-1.5-2.2-3.8-2.2h-.8c-2.4 0-2.6-.1-3.28-2.8l-.1-.1c-.28-.1-.6-.1-1-.1-1.3 0-3.1.55-4.6 1-.8.24-1.48.45-1.97.55-1.2.25-2.3 1-3.3 1.7-1.2.8-2.4 1.6-3.7 1.6-.3 0-.55 0-.8-.1-.7-.1-1.3-.1-1.86-.2-1.1 0-2 0-3-1.2-1.1-1.4-3.1-3-5.23-3-.9 0-1.8.3-2.5.93-.6-1.8-1.4-2.86-2.6-3.6h-.1c-.8.48-1.9 1.3-3.1 2.24-3.6 2.63-8.4 6.3-11.9 6.3-.94 0-1.7-.3-2.4-.8.3-1.7.3-2.5 0-2.9-.2-.2-.4-.3-.7-.3-.64 0-1.6.44-3.15 1.2-.6.3-4 1.4-5.4 1.4-.4 0-.5-.1-.5-.17s0-.3.9-1.1c1.55-1.3 2.9-2.84 4.2-4.35 1.5-1.7 3-3.4 4.8-4.8.6-.4 1.8-.9 3.05-1.4 2.6-1 5.6-2.2 5.7-4 0 0 0-.1-.1-.1-.7-.1-1.3-.34-2-.6-.8-.3-1.62-.6-2.5-.6-.1 0-.2 0-.4.08-1.14.24-2.33.3-3.53.2-.5-.43-1.03-.85-1.6-1.2h-.1c-.8 0-1.5.6-2.2 1.16-.7.5-1.4 1.1-2.16 1.1-.4 0-.8-.2-1.2-.58-1.8-1.6-3.24-2.4-4.53-2.4-.6 0-1.2.2-1.7.5-.9-.4-1.7-1.1-2.5-1.9-1.2-1.1-2.4-2.2-4.05-2.2-.87 0-1.75.3-2.7 1-.1.05-.4.14-.97.14-2.33 0-7.54-1.4-8.2-2.5-.6-.9-.8-2.3-1-3.6l-.3-1.8c-.25-.9-1-1.3-1.7-1.3s-1.5.5-1.55 1.5c-.1 2.2-1.3 3.15-4.1 3.15-.9 0-1.84-.1-2.8-.2-.9-.1-1.75-.2-2.53-.2-26.2-.1-53.5-1.7-81.2-4.7-25.7-2.8-52.3-7.2-79-13.1C84.8 8.8 72 5.6 59.65 2.2l-2.5-.7C55.85 1.1 54.4.7 53 .36 52.18.16 51.6 0 51.2 0c-.52 0-.7.3-.9.7-.2.38-.42.8-1 1.4-.15.18-.72.44-1.32.7-1.3.6-2.1 1.05-2.1 1.48 0 .4.2.8.5 1.2.6.7 1.5 1 2.1.8.1 0 .1-.1.1-.1-.02-1.7 1.1-2 2.5-2.5l.3-.03c-.1 1.3-.5 1.47-.9 1.67-.34.16-.74.35-1.03 1.1-.2.5-.33 1.5-.46 2.54-.2 1.1-.3 2.4-.6 2.85-1.1-2-2.1-2.3-4.2-3l-.8-.2c-1.2-.4-2.8-1.6-4.3-2.7-2.1-1.5-4-3-5.3-3-2.2 1-1.5 4.6-1 7.5.2 1.38.4 2.5.3 3.2-.3 2-.3 3.9 0 5.7.1 1.2 0 1.34-.2 1.6-.2.2-.4.5-.5 1.3-.1.7.1.92.4 1.32.1.1.1.2.2.38.5.7-.1 1.3-.7 2-.7.7-1.4 1.5-.9 2.6 1.3 2.57-2.4 10.2-4.2 13.9l-.7 1.4c-.9 1.9-1.6 3.9-2.3 5.8-1 2.7-2 5.4-3.4 7.9-1 1.9-2.2 3.7-3.7 5.8-1.5 2.06-1.6 2.9-1.7 4.4-.1.5-.1 1-.2 1.7l-.2 1.2c-.6 3.5-1.1 6.8-.77 10.4.32 3.5-1.56 5.9-3.37 8.2-1.2 1.5-2.38 3-3 4.8-.73 2.1.1 4.06 1 5.95 1 2.2 2 4.5.52 7.2-2 3.8-.3 7.5 1.2 10.8l.1.3c.3.5.5 1 .8 1.4.6 1.15 1.2 2.15 1.1 3.7-.04 1.6.7 2.6 1.4 3.5.54.7 1.04 1.36 1.25 2.3.22 1.2 0 2.6-.3 3.9-.44 2.3-.9 4.65 1.14 6.5 2.43 2.3 2.2 2.7 1.5 3.7-.4.6-.98 1.4-1.2 2.9-.6 3.37 3.63 10.8 4.5 12.24.6 1 3.2 6.4 3.02 6.8-1.2 2.37-1.6 4-1.2 5.1.4 1.3 1.7 1.97 3.3 2.77.8.43 1.7.9 2.7 1.53h.1v.04h.1c.7.5 1.4.8 2.1 1 1.3.5 2.4 1 3.2 2.8 1.1 2.7 3.9 3.57 5.4 3.8 1.7.3 1.7 1.4 1.8 2.9v.1c0 .55 1.1 1.5 3 3 1 .85 2.1 1.7 2.5 2.27l.1.1c1.4 1.9 3 3.8 3 6.38 0 .3-.1.7-.1 1.15-.2 1.9-.4 4.8 1.6 5.16 4.2.8 8.5 1.23 12.7 1.7 3.1.3 6.3.62 9.4 1.1-1 3.63 5.4 6.7 9.7 8.7 1.1.55 2.1 1 2.8 1.4 6.8 4.04 13.8 8.03 20.37 11.74 4.2 2.4 10.4 2.8 15.9 3.3 2.2.1 4.3.3 6.2.6.6.1 1.3.2 2.07.4 1.3.3 2.9.6 4.2.6.55 0 1-.1 1.4-.2 1.06-.3 1.14-1.45 1.2-2.57.1-.9.1-1.8.6-2.1.3-.2.96-.5 2.7-.5 4.8 0 13.4 1.6 14.75 2.6.7.5 1.02 1.22 1.4 2 .4.9.8 1.9 2 2.45 1.5.7 2.6 2.3 3.7 3.9 1 1.5 2.1 3.1 3.7 4 3.2 1.8 3.8 4.9 4.3 8.2.4 2 .7 4.1 1.8 5.84 2 3.3 9.9 9 13.6 9.2h.1c2.3-2 3-3.37 4-5.4.3-.6.6-1.3 1-2.05.7-1.22 1.9-1.82 3.76-1.82 1 0 2.06.2 3 .35l1 .12c5.03.63 8.4 2.82 12.1 7.8 1.15 1.6 2 3.9 2.7 5.9l.87 2.3c.67 1.52 1.4 2.6 2.28 3.7.6.75 1.2 1.53 1.7 2.5l.5.94c.58 1.03 1.1 2.1 2 2.93 1.9 1.73 1.9 1.85 2.2 3.4l.4 1.6.1.5c.66 2.73 2 8.4 4.1 10.03 2.3 1.8 13.6 6.23 18.4 6.23 1.4 0 2.2-.4 2.45-1.1v-.05c-.1-.5-.7-1.4-1.3-2.2-.4-.6-.77-1.1-.9-1.4-.6-1.2-.8-2.6-1.06-3.9l-.2-1.48c-.6-2.9.67-5.3 1.97-7.8.4-.72.8-1.5 1.14-2.3v-.1c-.1-.6-.5-1-.9-1.3-.3-.3-.56-.5-.6-.85.5-.4 3.1-2.3 3.8-2.9.2.3.5.5.8.5.9 0 2-1.4 2.4-2.2 1.4-.2 2.25-.7 2.6-1.5.4-.9.1-2.1-.8-3.3 1.1-.1 2.1-.2 3-.2 3.1-.2 5.3-.34 8.8-2.93l.8-.5c2.06-1.5 5.9-4.2 6.1-6 0-.1 0-.1-.03-.1l-.1-.1c-.8.2-1.5-.1-1.86-.8-.3-.6-.3-1.5 0-2.1.2-.36.6-.77 1.38-.76.2.6 1.5 2.64 1.84 3 .1.1.14.14.2.14h.16c3.8-1.9 8.28-3.8 12.67-3.8.6 0 1.1 0 1.6.1 1.3.1 2.4.6 3.5 1.1.8.36 1.7.7 2.6.9 1.1.3 2.2.4 3.5.4h1.4c1.2 0 2.26.02 3.33.3l.4.02c.4 0 .6-.2.64-.4.1-.5-.3-1.2-.6-1.4-.2-.1-.55-.15-1.2-.2-.75-.08-1.9-.2-2-.56-.05-.2.1-.4.4-.7.2-.2.6-.32 1-.32 1.9 0 5.25 2.1 6.5 3.7.4.5.5.87.45 1.1-.1.4-.08.7.1.96.3.5 1.12.7 1.83.8l.6.1c.7.2 1.22.3 1.72.3 1.07 0 1.6-.4 2.2-.8.6-.4 1.17-.8 2.36-1 1-.1 1.3.4 1.67 1 .3.5.6 1 1.36 1h.1c1.2 0 1.3-1.1 1.4-2.1.1-.9.2-1.7.8-2 .1-.03.3-.1.44-.1 1 0 2.2 1 3.4 2.1 1.48 1.27 2.98 2.5 4.27 2.38 1-.15 1.6-.44 1.66-.9.25-1.24-2.93-3.14-5.94-4.8-.44-.2-.9-.5-1.1-.6.2-.2.58-.5.98-.8 1.2-1 2.7-2.15 2.2-3.05-.6-1.3-1-1.7-1.4-1.7-.3 0-.6.3-.9.7-.22.2-.5.54-.9.9-.1-.1-.3-.2-.5-.3-.33-.2-.7-.34-.9-.8 1.35-.2 2.5-1.2 3.76-2.22 1.4-1.12 2.83-2.32 4.57-2.5.7-.06 1.75 0 2.9.06.8 0 1.65.1 2.45.1 1.55 0 2.56-.2 3.2-.6.06 0 .1-.1.1-.1l.07-.4c.1-.77.25-3 .9-3h.03c.2.1.7 1.1 1 1.9.5.9.9 1.8 1.18 2.03.3.3.78.5 1.3.5.9 0 1.9-.48 2.7-.8.28-.1.5-.2.68-.24.5-.1.84-.3 1.1-.4.9-.3.9-.3 2.2-.43l1.07-.1c1.1-.1 2.1-.6 3.1-1 1.2-.55 2.28-1.05 3.5-1.05.1 0 .3 0 .4.03-.44.4-.6.7-.6 1 .2.6 1.3.8 2.5 1.06.6.1 1.2.2 1.6.4.66.26 2 1.3 3.5 2.4 2.3 1.7 4.6 3.4 5.5 3.4.1 0 .2 0 .3-.1.7-.7 1.9-1.1 3.2-1.6 1.6-.7 3.36-1.3 4-2.4.8-1.3 1.9-2.06 3.3-2.06 1.3 0 2.8.77 4 2.1.7.77 1.57 1.5 2.38 2.2 1.1 1 2.3 2 3.1 3.1 1 1.3 2.1 1.86 3.1 2.3 1.46.7 2.74 1.4 3.4 4.5.2 1.14 0 2.7-.3 4.35-.5 3-.96 6.1 1.2 7.44.2.1.36.2.5.2.47 0 .7-.4.9-.9.2-.3.4-.7.7-.7.1 0 .24.1.4.2.6.4-.9 2.67-1.47 3.5l-.3.5c-.02.1 0 .1.06.2.6.35 1.38 1.54 2.17 2.8 1.2 1.9 2.44 3.9 3.7 3.9.4 0 .84-.2 1.2-.7l.07-.07c.1 0 .4.6.7 4.4v.6l.1.1c.4 0 .8-.1 1.1-.18.3-.05.5-.1.7-.1.46 0 .8.2 1.1 1.03.1.2.2.5.3.8.6 1.7 1.34 4.1 3.4 4.1.1 0 .2 0 .4-.07 2.3 1.06 3.3 2.88 4.2 4.5 1 1.8 1.8 3.3 4 3.3.6 0 1.3-.1 2-.3.5-.2 1.1-.25 1.6-.3 1.3-.2 2.56-.4 3.05-1.55.3-.8.04-1.56-.2-2.32-.2-.7-.5-1.4-.3-2.1.1-.6.3-1.1.5-1.6.36-1 .7-1.9.6-3.02-.5-8.4-2.3-13.8-7-21.45-.8-1.17-1.53-2.3-2.23-3.5-.3-.7-.2-1.5-.13-2.2.1-.78.2-1.58-.3-2.2-.86-1.2-1.74-2.38-2.6-3.5-2.14-2.8-4.17-5.46-5.84-8.6-3-5.5-5.8-12-4.3-18.1.2-.93.37-1.94.5-2.9.3-2.13.6-4.34 2.05-6.04.7-.8 1.64-2.3 2.46-3.6.4-.7.8-1.3 1.1-1.8.9-1.3 5.7-8.2 9.6-10.2 1.13-.6 1.6-2.8 2-4.8.2-.9.4-1.75.6-2.25 1.5-3.3 4.5-5.3 7.9-5.3h.8c.06 0 .1 0 .13-.02.8-1 1.03-2.14 1.26-3.3.2-1.2.5-2.4 1.3-3.4 1.7-1.9 3.48-3.85 5.6-4.7.5-.24 1-.4 1.5-.6 1.8-.6 3.38-1.2 4.5-3.13.2-.3.2-.6.1-.84-.2-.3-.7-.45-1.53-.45h-2.05l.2-.76c.36-1.1.8-2.5-.6-3l-.3-.1c-.16 0-.54 0-.6-.1 0 0 0-.08.04-.1.3-.16.7-.2 1.1-.2.36 0 .75.02 1.1.1.36.02.75.1 1.1.1.6 0 1.1-.16 1.6-.4.64-.4.9-1 1.14-1.6.2-.6.4-1.18 1-1.46 1.1-.5 1.6-2.1 1.6-3.44 0-1.58-.6-2.8-1.6-3.3-.1-.07-.16 0-.2 0-.2.3-.1.6 0 .9.1.26.16.5 0 .7-.26.4-.5.45-.7.45h-.5c-.6 0-.9.4-1.1 1.4-.7-.6-1.2-.7-1.6-.7-.18 0-.35 0-.5.04-.2.07-.38.1-.58.1-.3 0-.7 0-1.4-.4 0 0 0-.06.1-.18.74-.8 4.15-2.4 5-2.4h.1c0 .1 0 .1.1.1s.1 0 .1-.1c.2-1-1.82-4.86-2.3-5.44-.24-.3-.3-.73-.33-1.2-.08-.6-.14-1.3-.78-1.8-.08 0-.1 0-.1-.03-.76-.2-1.56-.3-2.36-.4-.4-.55-.8-1.2-1.1-1.8l-.2-.2c-.3-.3-.92-.9-.9-1.38 0-.1.1-.2.2-.3 1.1-.7.6-2.2.2-3.6-.2-.8-.4-1.5-.4-2.08.1-2.3-2-2.67-3.9-3-1.2-.2-2.3-.4-2.7-1.05.3-.16.6-.2.95-.2.6 0 1.2.2 1.8.4.7.23 1.4.5 2.2.5.26 0 .5-.05.7-.1.06 0 .1-.05.1-.1v-.1c-2-1.9-4.6-8.1-4.1-11.8.2-1.25.7-2.14 1.5-2.6.1.5.14 2.5.14 3 0 1.3.26 1.5.6 1.7.2.06.3.1.4.4-.4.4-.6.86-.8 1.36v.07c.02.5.3.7.6.9.3.2.5.4.34 1-.7 2.54 2 3.37 3.3 3.8.2.04.4.1.5.16 0 .92.86 1.7 1.6 2.4.46.43.9.8 1.1 1.2.1.2-.15 1.23-.4 2.23-.6 2.1-1.37 5.05-.55 6.1.27.3.6.4 1 .4.27 0 2.2-5.1 2.2-5.1.3-1 .44-2 .57-3.03.3-1.9.5-3.72 1.7-5.33 2.2-3 .15-5.45-1.84-7.84-1.3-1.5-2.6-3.1-2.7-4.8l.34.1c2.4.5 3.73.9 3.86 1.1.2.2.1.6.1 1-.1.5-.1 1.1.5 1.37h.1c1.1 0 4.9-7.4 5.6-13.1.4-3.7-.56-6-2.86-6.6.5-.8 3.68-2.3 6.7-3.7 4.5-2.2 9.6-4.6 10-6.2.06-.22 0-.44-.13-.63-.16-.24-.5-.4-.96-.4-2.8 0-10.07 3.7-12.47 5l-.2.08c1.7-4.5 6.53-6.2 11.7-8.06 4.65-1.66 9.45-3.36 11.9-7.27.7.8 1.4 1.2 2.2 1.2 2.2 0 3.94-3.2 3.94-5.3 0-1.8-1.14-2.53-3.1-2 0 0-.06.1-.06.16 0 .13.12.3.5.83.6.8 1.6 2.24 1.25 2.9-.2.4-1 .42-2.26.12-1.2-.3-2.6-2.1-3.2-3.3-.4-.8-1.3-1-2-1.2-.67-.18-1.2-.3-1.4-.77.04-.4.45-1.1.85-1.8.6-1.02 1.2-2 .9-2.5-.1-.2-.3-.25-.53-.3-.48 0-.8-.2-1-.5-1.1-1.6.53-6.5 1.2-8.3.1-.2.12-.4.2-.6 1.2-3.9 1.3-4.22 5-6 3.6-1.7 4.1-5.22 4-8.5 1 .66 1.8 1.36 2.4 2.5l.1.04s.1 0 .1-.1c.2-.3.3-.87.45-1.4.15-.6.34-1.4.55-1.6l.2.3c.2.4.54.9.96.9.34-.04.6-.15.76-.34.3-.37.3-.96.2-1.47 0-.3 0-.6.1-.8l1.3.3c.07.07.1 0 .15 0 .6-.6 1.1-1.2 1.5-2 .6-.6 1.27-1.1 1.9-1.6 1.3-1.04 2.54-2 3.4-3.6.27-.5-.13-1.3-.4-1.8-.7-1.2-2-2.44-2.93-2.44z"/>
    <circle cx="43" cy="180" r="26" fill="#0AB187" fill-opacity=".33"/>
    <circle cx="470" cy="99" r="26" fill="#0AB187" fill-opacity=".33"/>
    <circle cx="233.5" cy="180.5" r="12.5" fill="#0AB187" fill-opacity=".33"/>
    <circle cx="392.5" cy="216.5" r="12.5" fill="#0AB187" fill-opacity=".33"/>
    <circle cx="35.5" cy="38.5" r="12.5" fill="#0AB187" fill-opacity=".33"/>
    <circle cx="12.5" cy="107.5" r="12.5" fill="#0AB187" fill-opacity=".33"/>
    <circle cx="113.5" cy="140.5" r="8.5" fill="#0AB187" fill-opacity=".33"/>
    <circle cx="146" cy="65" r="5" fill="#0AB187" fill-opacity=".33"/>
    <circle cx="317" cy="190" r="5" fill="#0AB187" fill-opacity=".33"/>
    <circle cx="497" cy="35" r="5" fill="#0AB187" fill-opacity=".33"/>
    <circle cx="124" cy="198" r="5" fill="#0AB187" fill-opacity=".33"/>
    <circle cx="172" cy="165" r="5" fill="#0AB187" fill-opacity=".33"/>
    <circle cx="386" cy="138" r="5" fill="#0AB187" fill-opacity=".33"/>
    <circle cx="377" cy="109" r="5" fill="#0AB187" fill-opacity=".33"/>
    <circle cx="302" cy="145" r="5" fill="#0AB187" fill-opacity=".33"/>
    <circle cx="84" cy="69" r="5" fill="#0AB187" fill-opacity=".33"/>
    <circle cx="261" cy="31" r="5" fill="#0AB187" fill-opacity=".33"/>
    <circle cx="416.5" cy="291.5" r="8.5" fill="#0AB187" fill-opacity=".33"/>
    <circle cx="415.5" cy="248.5" r="8.5" fill="#0AB187" fill-opacity=".33"/>
    <circle cx="447.5" cy="155.5" r="8.5" fill="#0AB187" fill-opacity=".33"/>
    <circle cx="232.5" cy="97.5" r="8.5" fill="#0AB187" fill-opacity=".33"/>
    <circle cx="332.5" cy="104.5" r="12.5" fill="#0AB187" fill-opacity=".33"/>
    <circle cx="256" cy="254" r="26" fill="#0AB187" fill-opacity=".33"/>
  </g>
</svg>
